# xmcd
#
# Track frame offsets: 
#        182
#        20475
#        40312
#        58632
#        76875
#        93712
#        116202
#        138272
#        155157
#        164510
#        186950
#        209015
#
# Disc length: 3033 seconds
#
# Revision: 2
# Processed by: cddbd v1.5.2PL0 Copyright (c) Steve Scherf et al.
# Submitted via: ExactAudioCopyFreeDBPlugin 1.0
#
DISCID=af0bd70c
DTITLE=한상원 - Funky Station
DYEAR=1998
DGENRE=Rock
TTITLE0=Funky Station
TTITLE1=이탈 feat. 이현도, 조규찬
TTITLE2=너의 욕심 (Funky Verison) feat. 신해철
TTITLE3=우리가 함께 했던 시간
TTITLE4=광대춤 feat. 유진하
TTITLE5=Kiß (KISS) feat. 이소라
TTITLE6=Old Fasioned Lovers
TTITLE7=너, 나, 따로... feat. 이범용
TTITLE8=음깔
TTITLE9=Musician feat. 유앤미블루
TTITLE10=Solitude
TTITLE11=너의 욕심 (Alternative Version)
EXTD=
EXTT0=
EXTT1=
EXTT2=
EXTT3=
EXTT4=
EXTT5=
EXTT6=
EXTT7=
EXTT8=
EXTT9=
EXTT10=
EXTT11=
PLAYORDER=
